<mxfile host="app.diagrams.net" modified="2024-04-09T20:52:12.857Z" agent="Mozilla/5.0 (Windows NT 10.0; Win64; x64) AppleWebKit/537.36 (KHTML, like Gecko) Chrome/123.0.0.0 Safari/537.36" etag="LxHHS8c5odB09knOkjAn" version="24.2.3" type="github">
  <diagram name="Сторінка-1" id="4NnscdOud7t3WqkIFgde">
    <mxGraphModel dx="1400" dy="1876" grid="1" gridSize="10" guides="1" tooltips="1" connect="1" arrows="1" fold="1" page="1" pageScale="1" pageWidth="827" pageHeight="1169" math="0" shadow="0">
      <root>
        <mxCell id="0" />
        <mxCell id="1" parent="0" />
        <mxCell id="ysQvWt2n_lniXi2UkVhW-1" value="Перегляд профілю" style="swimlane;fontStyle=1;align=center;verticalAlign=middle;childLayout=stackLayout;horizontal=1;startSize=30;horizontalStack=0;resizeParent=0;resizeLast=1;container=0;fontColor=#000000;collapsible=0;rounded=1;arcSize=30;strokeColor=#ff0000;fillColor=#ffffc0;swimlaneFillColor=#ffffc0;dropTarget=0;" parent="1" vertex="1">
          <mxGeometry x="60" y="680" width="250" height="150" as="geometry" />
        </mxCell>
        <mxCell id="ysQvWt2n_lniXi2UkVhW-2" value="Subtitle" style="text;html=1;strokeColor=none;fillColor=none;align=center;verticalAlign=middle;spacingLeft=4;spacingRight=4;whiteSpace=wrap;overflow=hidden;rotatable=0;fontColor=#000000;" parent="ysQvWt2n_lniXi2UkVhW-1" vertex="1">
          <mxGeometry y="30" width="250" height="120" as="geometry" />
        </mxCell>
        <mxCell id="ysQvWt2n_lniXi2UkVhW-3" value="" style="edgeStyle=orthogonalEdgeStyle;html=1;verticalAlign=bottom;endArrow=open;endSize=8;strokeColor=#ff0000;rounded=0;entryX=0.5;entryY=0;entryDx=0;entryDy=0;" parent="1" source="ysQvWt2n_lniXi2UkVhW-1" edge="1" target="EZjnUPANlJix_Xs9OcvV-2">
          <mxGeometry relative="1" as="geometry">
            <mxPoint x="185" y="870" as="targetPoint" />
            <Array as="points">
              <mxPoint x="185" y="890" />
            </Array>
          </mxGeometry>
        </mxCell>
        <mxCell id="EZjnUPANlJix_Xs9OcvV-1" style="edgeStyle=orthogonalEdgeStyle;rounded=0;orthogonalLoop=1;jettySize=auto;html=1;" edge="1" parent="1" source="ysQvWt2n_lniXi2UkVhW-4" target="ysQvWt2n_lniXi2UkVhW-6">
          <mxGeometry relative="1" as="geometry">
            <Array as="points" />
          </mxGeometry>
        </mxCell>
        <mxCell id="ysQvWt2n_lniXi2UkVhW-4" value="Створення проєкту" style="swimlane;fontStyle=1;align=center;verticalAlign=middle;childLayout=stackLayout;horizontal=1;startSize=30;horizontalStack=0;resizeParent=0;resizeLast=1;container=0;fontColor=#000000;collapsible=0;rounded=1;arcSize=30;strokeColor=#ff0000;fillColor=#ffffc0;swimlaneFillColor=#ffffc0;dropTarget=0;" parent="1" vertex="1">
          <mxGeometry x="1019.96" y="75" width="250" height="150" as="geometry" />
        </mxCell>
        <mxCell id="ysQvWt2n_lniXi2UkVhW-5" value="Subtitle" style="text;html=1;strokeColor=none;fillColor=none;align=center;verticalAlign=middle;spacingLeft=4;spacingRight=4;whiteSpace=wrap;overflow=hidden;rotatable=0;fontColor=#000000;" parent="ysQvWt2n_lniXi2UkVhW-4" vertex="1">
          <mxGeometry y="30" width="250" height="120" as="geometry" />
        </mxCell>
        <mxCell id="ysQvWt2n_lniXi2UkVhW-6" value="Перегляд проєкту" style="swimlane;fontStyle=1;align=center;verticalAlign=middle;childLayout=stackLayout;horizontal=1;startSize=30;horizontalStack=0;resizeParent=0;resizeLast=1;container=0;fontColor=#000000;collapsible=0;rounded=1;arcSize=30;strokeColor=#ff0000;fillColor=#ffffc0;swimlaneFillColor=#ffffc0;dropTarget=0;" parent="1" vertex="1">
          <mxGeometry x="1019.96" y="320" width="540.04" height="310" as="geometry" />
        </mxCell>
        <mxCell id="ysQvWt2n_lniXi2UkVhW-7" value="&lt;span style=&quot;color: rgba(0, 0, 0, 0); font-family: monospace; font-size: 0px; text-align: start; text-wrap: nowrap;&quot;&gt;%3CmxGraphModel%3E%3Croot%3E%3CmxCell%20id%3D%220%22%2F%3E%3CmxCell%20id%3D%221%22%20parent%3D%220%22%2F%3E%3CmxCell%20id%3D%222%22%20value%3D%22%D0%9F%D0%B5%D1%80%D0%B5%D0%B3%D0%BB%D1%8F%D0%B4%20%D0%B7%D0%B0%D0%B2%D0%B4%D0%B0%D0%BD%D0%BD%D1%8F%22%20style%3D%22swimlane%3BfontStyle%3D1%3Balign%3Dcenter%3BverticalAlign%3Dmiddle%3BchildLayout%3DstackLayout%3Bhorizontal%3D1%3BstartSize%3D30%3BhorizontalStack%3D0%3BresizeParent%3D0%3BresizeLast%3D1%3Bcontainer%3D0%3BfontColor%3D%23000000%3Bcollapsible%3D0%3Brounded%3D1%3BarcSize%3D35%3BstrokeColor%3D%23ff0000%3BfillColor%3D%23ffffc0%3BswimlaneFillColor%3D%23ffffc0%3BdropTarget%3D0%3B%22%20vertex%3D%221%22%20parent%3D%221%22%3E%3CmxGeometry%20x%3D%22680%22%20y%3D%2220%22%20width%3D%22190%22%20height%3D%2280%22%20as%3D%22geometry%22%2F%3E%3C%2FmxCell%3E%3CmxCell%20id%3D%223%22%20value%3D%22do%2F%5E%D0%97%D0%B0%D0%B2%D0%B4%D0%B0%D0%BD%D0%BD%D1%8F.%D0%BF%D0%BE%D0%BA%D0%B0%D0%B7%D0%B0%D1%82%D0%B8_%D0%BF%D1%80%D0%BE%D1%94%D0%BA%D1%82%26lt%3Bdiv%26gt%3Bdo%5E%2F%D0%97%D0%B0%D0%B2%D0%B4%D0%B0%D0%BD%D0%BD%D1%8F.%D0%BF%D0%BE%D0%BA%D0%B0%D0%B7%D0%B0%D1%82%D0%B8_%D0%B4%D0%B5%D1%82%D0%B0%D0%BB%D1%96%26lt%3B%2Fdiv%26gt%3B%26lt%3Bdiv%26gt%3Bdo%2F%5E%D0%97%D0%B0%D0%B2%D0%B4%D0%B0%D0%BD%D0%BD%D1%8F.%D0%BF%D0%BE%D0%BA%D0%B0%D0%B7%D0%B0%D1%82%D0%B8_%D1%96%D1%81%D1%82%D0%BE%D1%80%D1%96%D1%8E%26lt%3B%2Fdiv%26gt%3B%22%20style%3D%22text%3Bhtml%3D1%3BstrokeColor%3Dnone%3BfillColor%3Dnone%3Balign%3Dcenter%3BverticalAlign%3Dmiddle%3BspacingLeft%3D4%3BspacingRight%3D4%3BwhiteSpace%3Dwrap%3Boverflow%3Dhidden%3Brotatable%3D0%3BfontColor%3D%23000000%3B%22%20vertex%3D%221%22%20parent%3D%222%22%3E%3CmxGeometry%20y%3D%2230%22%20width%3D%22190%22%20height%3D%2250%22%20as%3D%22geometry%22%2F%3E%3C%2FmxCell%3E%3C%2Froot%3E%3C%2FmxGraphModel%3E&lt;/span&gt;" style="text;html=1;strokeColor=none;fillColor=none;align=center;verticalAlign=middle;spacingLeft=4;spacingRight=4;whiteSpace=wrap;overflow=hidden;rotatable=0;fontColor=#000000;" parent="ysQvWt2n_lniXi2UkVhW-6" vertex="1">
          <mxGeometry y="30" width="540.04" height="280" as="geometry" />
        </mxCell>
        <mxCell id="ysQvWt2n_lniXi2UkVhW-8" value="Перегляд звітів" style="swimlane;fontStyle=1;align=center;verticalAlign=middle;childLayout=stackLayout;horizontal=1;startSize=30;horizontalStack=0;resizeParent=0;resizeLast=1;container=0;fontColor=#000000;collapsible=0;rounded=1;arcSize=30;strokeColor=#ff0000;fillColor=#ffffc0;swimlaneFillColor=#ffffc0;dropTarget=0;" parent="1" vertex="1">
          <mxGeometry x="430" y="650" width="340" height="170" as="geometry" />
        </mxCell>
        <mxCell id="ysQvWt2n_lniXi2UkVhW-9" value="Subtitle" style="text;html=1;strokeColor=none;fillColor=none;align=center;verticalAlign=middle;spacingLeft=4;spacingRight=4;whiteSpace=wrap;overflow=hidden;rotatable=0;fontColor=#000000;" parent="ysQvWt2n_lniXi2UkVhW-8" vertex="1">
          <mxGeometry y="30" width="340" height="140" as="geometry" />
        </mxCell>
        <mxCell id="ysQvWt2n_lniXi2UkVhW-12" value="Інформація про проєкт" style="swimlane;fontStyle=1;align=center;verticalAlign=middle;childLayout=stackLayout;horizontal=1;startSize=30;horizontalStack=0;resizeParent=0;resizeLast=1;container=0;fontColor=#000000;collapsible=0;rounded=1;arcSize=30;strokeColor=#ff0000;fillColor=#ffffc0;swimlaneFillColor=#ffffc0;dropTarget=0;" parent="1" vertex="1">
          <mxGeometry x="1030" y="350" width="250" height="150" as="geometry" />
        </mxCell>
        <mxCell id="ysQvWt2n_lniXi2UkVhW-13" value="do/^Проєкт.показати_назву&lt;div&gt;do/^Проєкт.показати_деталі&lt;br&gt;&lt;/div&gt;&lt;div&gt;do/^Проєкт.показати_назву&lt;br&gt;&lt;/div&gt;&lt;div&gt;do/^Проєкт.показати_цінність&lt;br&gt;&lt;/div&gt;&lt;div&gt;do/^Проєкт.показати_менеджера&lt;br&gt;&lt;/div&gt;&lt;div&gt;&lt;span style=&quot;color: rgba(0, 0, 0, 0); font-family: monospace; font-size: 0px; text-align: start; text-wrap: nowrap;&quot;&gt;%3CmxGraphModel%3E%3Croot%3E%3CmxCell%20id%3D%220%22%2F%3E%3CmxCell%20id%3D%221%22%20parent%3D%220%22%2F%3E%3CmxCell%20id%3D%222%22%20value%3D%22%D0%9F%D0%B5%D1%80%D0%B5%D0%B3%D0%BB%D1%8F%D0%B4%20%D0%BE%D1%81%D0%BE%D0%B1%D0%B8%D1%81%D1%82%D0%B8%D1%85%20%D0%B7%D0%B0%D0%B2%D0%B4%D0%B0%D0%BD%D1%8C%22%20style%3D%22swimlane%3BfontStyle%3D1%3Balign%3Dcenter%3BverticalAlign%3Dmiddle%3BchildLayout%3DstackLayout%3Bhorizontal%3D1%3BstartSize%3D30%3BhorizontalStack%3D0%3BresizeParent%3D0%3BresizeLast%3D1%3Bcontainer%3D0%3BfontColor%3D%23000000%3Bcollapsible%3D0%3Brounded%3D1%3BarcSize%3D30%3BstrokeColor%3D%23ff0000%3BfillColor%3D%23ffffc0%3BswimlaneFillColor%3D%23ffffc0%3BdropTarget%3D0%3B%22%20vertex%3D%221%22%20parent%3D%221%22%3E%3CmxGeometry%20x%3D%22240%22%20y%3D%22160%22%20width%3D%22250%22%20height%3D%2270%22%20as%3D%22geometry%22%2F%3E%3C%2FmxCell%3E%3CmxCell%20id%3D%223%22%20value%3D%22do%2F%5E%D0%9F%D1%80%D0%BE%D1%84%D1%96%D0%BB%D1%8C.%D0%BF%D0%B5%D1%80%D0%B5%D0%B3%D0%BB%D1%8F%D0%B4_%D0%B7%D0%B0%D0%B2%D0%B4%D0%B0%D0%BD%D1%8C%22%20style%3D%22text%3Bhtml%3D1%3BstrokeColor%3Dnone%3BfillColor%3Dnone%3Balign%3Dcenter%3BverticalAlign%3Dmiddle%3BspacingLeft%3D4%3BspacingRight%3D4%3BwhiteSpace%3Dwrap%3Boverflow%3Dhidden%3Brotatable%3D0%3BfontColor%3D%23000000%3B%22%20vertex%3D%221%22%20parent%3D%222%22%3E%3CmxGeometry%20y%3D%2230%22%20width%3D%22250%22%20height%3D%2240%22%20as%3D%22geometry%22%2F%3E%3C%2FmxCell%3E%3C%2Froot%3E%3C%2FmxGraphModel%3E&lt;/span&gt;&lt;span style=&quot;background-color: initial;&quot;&gt;do/^Проєкт.показати_прогрес&lt;/span&gt;&lt;/div&gt;" style="text;html=1;strokeColor=none;fillColor=none;align=center;verticalAlign=middle;spacingLeft=4;spacingRight=4;whiteSpace=wrap;overflow=hidden;rotatable=0;fontColor=#000000;" parent="ysQvWt2n_lniXi2UkVhW-12" vertex="1">
          <mxGeometry y="30" width="250" height="120" as="geometry" />
        </mxCell>
        <mxCell id="ysQvWt2n_lniXi2UkVhW-14" value="Переглянути профіль" style="swimlane;fontStyle=1;align=center;verticalAlign=middle;childLayout=stackLayout;horizontal=1;startSize=30;horizontalStack=0;resizeParent=0;resizeLast=1;container=0;fontColor=#000000;collapsible=0;rounded=1;arcSize=30;strokeColor=#ff0000;fillColor=#ffffc0;swimlaneFillColor=#ffffc0;dropTarget=0;" parent="1" vertex="1">
          <mxGeometry x="240" y="-140" width="720" height="540" as="geometry" />
        </mxCell>
        <mxCell id="EZjnUPANlJix_Xs9OcvV-2" value="Перегляд компанії" style="swimlane;fontStyle=1;align=center;verticalAlign=middle;childLayout=stackLayout;horizontal=1;startSize=30;horizontalStack=0;resizeParent=0;resizeLast=1;container=0;fontColor=#000000;collapsible=0;rounded=1;arcSize=30;strokeColor=#ff0000;fillColor=#ffffc0;swimlaneFillColor=#ffffc0;dropTarget=0;" vertex="1" parent="1">
          <mxGeometry x="20" y="900" width="330" height="150" as="geometry" />
        </mxCell>
        <mxCell id="EZjnUPANlJix_Xs9OcvV-3" value="Subtitle" style="text;html=1;strokeColor=none;fillColor=none;align=center;verticalAlign=middle;spacingLeft=4;spacingRight=4;whiteSpace=wrap;overflow=hidden;rotatable=0;fontColor=#000000;" vertex="1" parent="EZjnUPANlJix_Xs9OcvV-2">
          <mxGeometry y="30" width="330" height="120" as="geometry" />
        </mxCell>
        <mxCell id="EZjnUPANlJix_Xs9OcvV-4" value="Перегляд особистих даних" style="swimlane;fontStyle=1;align=center;verticalAlign=middle;childLayout=stackLayout;horizontal=1;startSize=30;horizontalStack=0;resizeParent=0;resizeLast=1;container=0;fontColor=#000000;collapsible=0;rounded=1;arcSize=30;strokeColor=#ff0000;fillColor=#ffffc0;swimlaneFillColor=#ffffc0;dropTarget=0;" vertex="1" parent="1">
          <mxGeometry x="250" y="-90" width="200" height="90" as="geometry" />
        </mxCell>
        <mxCell id="EZjnUPANlJix_Xs9OcvV-5" value="do/^Профіль.перегляд_імені&lt;div&gt;do/^Профіль.перегляд_ID&lt;br&gt;&lt;div&gt;do/^Профіль.перегляд_навичок&lt;/div&gt;&lt;div&gt;do/^&lt;/div&gt;&lt;/div&gt;" style="text;html=1;strokeColor=none;fillColor=none;align=center;verticalAlign=middle;spacingLeft=4;spacingRight=4;whiteSpace=wrap;overflow=hidden;rotatable=0;fontColor=#000000;" vertex="1" parent="EZjnUPANlJix_Xs9OcvV-4">
          <mxGeometry y="30" width="200" height="60" as="geometry" />
        </mxCell>
        <mxCell id="EZjnUPANlJix_Xs9OcvV-6" value="Редагування профілю" style="swimlane;fontStyle=1;align=center;verticalAlign=middle;childLayout=stackLayout;horizontal=1;startSize=30;horizontalStack=0;resizeParent=0;resizeLast=1;container=0;fontColor=#000000;collapsible=0;rounded=1;arcSize=30;strokeColor=#ff0000;fillColor=#ffffc0;swimlaneFillColor=#ffffc0;dropTarget=0;" vertex="1" parent="1">
          <mxGeometry x="490" y="-90" width="205" height="90" as="geometry" />
        </mxCell>
        <mxCell id="EZjnUPANlJix_Xs9OcvV-7" value="do/^Профіль.редагувати_ім&#39;я&lt;div&gt;do/^Профіль.редагувати_навички&lt;/div&gt;" style="text;html=1;strokeColor=none;fillColor=none;align=center;verticalAlign=middle;spacingLeft=4;spacingRight=4;whiteSpace=wrap;overflow=hidden;rotatable=0;fontColor=#000000;" vertex="1" parent="EZjnUPANlJix_Xs9OcvV-6">
          <mxGeometry y="30" width="205" height="60" as="geometry" />
        </mxCell>
        <mxCell id="EZjnUPANlJix_Xs9OcvV-8" value="" style="ellipse;html=1;shape=startState;fillColor=#000000;strokeColor=#ff0000;" vertex="1" parent="1">
          <mxGeometry x="65" y="90" width="30" height="30" as="geometry" />
        </mxCell>
        <mxCell id="EZjnUPANlJix_Xs9OcvV-9" value="" style="edgeStyle=orthogonalEdgeStyle;html=1;verticalAlign=bottom;endArrow=open;endSize=8;strokeColor=#ff0000;rounded=0;" edge="1" source="EZjnUPANlJix_Xs9OcvV-8" parent="1" target="EZjnUPANlJix_Xs9OcvV-10">
          <mxGeometry relative="1" as="geometry">
            <mxPoint x="55" y="181" as="targetPoint" />
          </mxGeometry>
        </mxCell>
        <mxCell id="EZjnUPANlJix_Xs9OcvV-10" value="Завантаження даних" style="rounded=1;whiteSpace=wrap;html=1;arcSize=40;fontColor=#000000;fillColor=#ffffc0;strokeColor=#ff0000;" vertex="1" parent="1">
          <mxGeometry x="20" y="190" width="120" height="40" as="geometry" />
        </mxCell>
        <mxCell id="EZjnUPANlJix_Xs9OcvV-11" value="" style="edgeStyle=orthogonalEdgeStyle;html=1;verticalAlign=bottom;endArrow=open;endSize=8;strokeColor=#ff0000;rounded=0;" edge="1" source="EZjnUPANlJix_Xs9OcvV-10" parent="1" target="EZjnUPANlJix_Xs9OcvV-12">
          <mxGeometry relative="1" as="geometry">
            <mxPoint x="80" y="320" as="targetPoint" />
          </mxGeometry>
        </mxCell>
        <mxCell id="EZjnUPANlJix_Xs9OcvV-19" style="edgeStyle=orthogonalEdgeStyle;rounded=0;orthogonalLoop=1;jettySize=auto;html=1;" edge="1" parent="1" source="EZjnUPANlJix_Xs9OcvV-12" target="ysQvWt2n_lniXi2UkVhW-14">
          <mxGeometry relative="1" as="geometry">
            <mxPoint x="380.0000000000002" y="410" as="targetPoint" />
            <Array as="points">
              <mxPoint x="380" y="450" />
            </Array>
          </mxGeometry>
        </mxCell>
        <mxCell id="EZjnUPANlJix_Xs9OcvV-20" value="Вхід до акаунту успішний" style="edgeLabel;html=1;align=center;verticalAlign=middle;resizable=0;points=[];" vertex="1" connectable="0" parent="EZjnUPANlJix_Xs9OcvV-19">
          <mxGeometry x="-0.1479" relative="1" as="geometry">
            <mxPoint as="offset" />
          </mxGeometry>
        </mxCell>
        <mxCell id="EZjnUPANlJix_Xs9OcvV-12" value="Вхід у систему" style="rounded=1;whiteSpace=wrap;html=1;arcSize=40;fontColor=#000000;fillColor=#ffffc0;strokeColor=#ff0000;" vertex="1" parent="1">
          <mxGeometry x="20" y="430" width="120" height="40" as="geometry" />
        </mxCell>
        <mxCell id="EZjnUPANlJix_Xs9OcvV-13" value="" style="edgeStyle=orthogonalEdgeStyle;html=1;verticalAlign=bottom;endArrow=open;endSize=8;strokeColor=#ff0000;rounded=0;entryX=0;entryY=0.5;entryDx=0;entryDy=0;" edge="1" source="EZjnUPANlJix_Xs9OcvV-12" parent="1" target="EZjnUPANlJix_Xs9OcvV-14">
          <mxGeometry relative="1" as="geometry">
            <mxPoint x="80" y="530" as="targetPoint" />
            <Array as="points">
              <mxPoint x="70" y="490" />
              <mxPoint x="70" y="490" />
            </Array>
          </mxGeometry>
        </mxCell>
        <mxCell id="EZjnUPANlJix_Xs9OcvV-17" value="[Відбулася помилка]" style="edgeLabel;html=1;align=center;verticalAlign=middle;resizable=0;points=[];" vertex="1" connectable="0" parent="EZjnUPANlJix_Xs9OcvV-13">
          <mxGeometry x="-0.5554" y="1" relative="1" as="geometry">
            <mxPoint as="offset" />
          </mxGeometry>
        </mxCell>
        <mxCell id="EZjnUPANlJix_Xs9OcvV-14" value="Повідомити про помилку" style="rounded=1;whiteSpace=wrap;html=1;arcSize=40;fontColor=#000000;fillColor=#ffffc0;strokeColor=#ff0000;" vertex="1" parent="1">
          <mxGeometry x="70" y="570" width="120" height="40" as="geometry" />
        </mxCell>
        <mxCell id="EZjnUPANlJix_Xs9OcvV-15" value="" style="edgeStyle=orthogonalEdgeStyle;html=1;verticalAlign=bottom;endArrow=open;endSize=8;strokeColor=#ff0000;rounded=0;" edge="1" source="EZjnUPANlJix_Xs9OcvV-14" parent="1" target="EZjnUPANlJix_Xs9OcvV-12">
          <mxGeometry relative="1" as="geometry">
            <mxPoint x="320" y="530" as="targetPoint" />
            <Array as="points">
              <mxPoint x="170" y="540" />
              <mxPoint x="140" y="540" />
            </Array>
          </mxGeometry>
        </mxCell>
        <mxCell id="EZjnUPANlJix_Xs9OcvV-18" value="[спробувати знову]" style="edgeLabel;html=1;align=center;verticalAlign=middle;resizable=0;points=[];" vertex="1" connectable="0" parent="EZjnUPANlJix_Xs9OcvV-15">
          <mxGeometry x="0.1806" y="-2" relative="1" as="geometry">
            <mxPoint as="offset" />
          </mxGeometry>
        </mxCell>
        <mxCell id="ysQvWt2n_lniXi2UkVhW-10" value="Перегляд особистих завдань" style="swimlane;fontStyle=1;align=center;verticalAlign=middle;childLayout=stackLayout;horizontal=1;startSize=30;horizontalStack=0;resizeParent=0;resizeLast=1;container=0;fontColor=#000000;collapsible=0;rounded=1;arcSize=30;strokeColor=#ff0000;fillColor=#ffffc0;swimlaneFillColor=#ffffc0;dropTarget=0;" parent="1" vertex="1">
          <mxGeometry x="240" y="160" width="250" height="70" as="geometry" />
        </mxCell>
        <mxCell id="ysQvWt2n_lniXi2UkVhW-11" value="do/^Профіль.перегляд_завдань" style="text;html=1;strokeColor=none;fillColor=none;align=center;verticalAlign=middle;spacingLeft=4;spacingRight=4;whiteSpace=wrap;overflow=hidden;rotatable=0;fontColor=#000000;" parent="ysQvWt2n_lniXi2UkVhW-10" vertex="1">
          <mxGeometry y="30" width="250" height="40" as="geometry" />
        </mxCell>
        <mxCell id="EZjnUPANlJix_Xs9OcvV-52" style="edgeStyle=orthogonalEdgeStyle;rounded=0;orthogonalLoop=1;jettySize=auto;html=1;" edge="1" parent="1" source="EZjnUPANlJix_Xs9OcvV-24" target="ysQvWt2n_lniXi2UkVhW-10">
          <mxGeometry relative="1" as="geometry">
            <Array as="points">
              <mxPoint x="775" y="120" />
              <mxPoint x="365" y="120" />
            </Array>
          </mxGeometry>
        </mxCell>
        <mxCell id="EZjnUPANlJix_Xs9OcvV-53" value="[вийти в список]" style="edgeLabel;html=1;align=center;verticalAlign=middle;resizable=0;points=[];" vertex="1" connectable="0" parent="EZjnUPANlJix_Xs9OcvV-52">
          <mxGeometry x="-0.3658" relative="1" as="geometry">
            <mxPoint as="offset" />
          </mxGeometry>
        </mxCell>
        <mxCell id="EZjnUPANlJix_Xs9OcvV-24" value="Перегляд завдання" style="swimlane;fontStyle=1;align=center;verticalAlign=middle;childLayout=stackLayout;horizontal=1;startSize=30;horizontalStack=0;resizeParent=0;resizeLast=1;container=0;fontColor=#000000;collapsible=0;rounded=1;arcSize=35;strokeColor=#ff0000;fillColor=#ffffc0;swimlaneFillColor=#ffffc0;dropTarget=0;" vertex="1" parent="1">
          <mxGeometry x="680" y="20" width="190" height="80" as="geometry" />
        </mxCell>
        <mxCell id="EZjnUPANlJix_Xs9OcvV-25" value="do/^Завдання.показати_проєкт&lt;div&gt;do^/Завдання.показати_деталі&lt;/div&gt;&lt;div&gt;do/^Завдання.показати_історію&lt;/div&gt;" style="text;html=1;strokeColor=none;fillColor=none;align=center;verticalAlign=middle;spacingLeft=4;spacingRight=4;whiteSpace=wrap;overflow=hidden;rotatable=0;fontColor=#000000;" vertex="1" parent="EZjnUPANlJix_Xs9OcvV-24">
          <mxGeometry y="30" width="190" height="50" as="geometry" />
        </mxCell>
        <mxCell id="EZjnUPANlJix_Xs9OcvV-27" style="edgeStyle=orthogonalEdgeStyle;rounded=0;orthogonalLoop=1;jettySize=auto;html=1;" edge="1" parent="1" source="ysQvWt2n_lniXi2UkVhW-10" target="EZjnUPANlJix_Xs9OcvV-28">
          <mxGeometry relative="1" as="geometry">
            <mxPoint x="565" y="210" as="targetPoint" />
          </mxGeometry>
        </mxCell>
        <mxCell id="EZjnUPANlJix_Xs9OcvV-31" value="[обрано завдання&lt;div&gt;в процесі]&lt;/div&gt;" style="edgeLabel;html=1;align=center;verticalAlign=middle;resizable=0;points=[];" vertex="1" connectable="0" parent="EZjnUPANlJix_Xs9OcvV-27">
          <mxGeometry x="-0.0708" relative="1" as="geometry">
            <mxPoint as="offset" />
          </mxGeometry>
        </mxCell>
        <mxCell id="EZjnUPANlJix_Xs9OcvV-30" style="edgeStyle=orthogonalEdgeStyle;rounded=0;orthogonalLoop=1;jettySize=auto;html=1;" edge="1" parent="1" source="EZjnUPANlJix_Xs9OcvV-28" target="EZjnUPANlJix_Xs9OcvV-24">
          <mxGeometry relative="1" as="geometry">
            <Array as="points">
              <mxPoint x="830" y="120" />
              <mxPoint x="830" y="120" />
            </Array>
          </mxGeometry>
        </mxCell>
        <mxCell id="EZjnUPANlJix_Xs9OcvV-28" value="Завантаження історії" style="swimlane;fontStyle=1;align=center;verticalAlign=middle;childLayout=stackLayout;horizontal=1;startSize=30;horizontalStack=0;resizeParent=0;resizeLast=1;container=0;fontColor=#000000;collapsible=0;rounded=1;arcSize=30;strokeColor=#ff0000;fillColor=#ffffc0;swimlaneFillColor=#ffffc0;dropTarget=0;" vertex="1" parent="1">
          <mxGeometry x="600" y="145" width="250" height="70" as="geometry" />
        </mxCell>
        <mxCell id="EZjnUPANlJix_Xs9OcvV-29" value="do/^Профіль.перегляд_завдань" style="text;html=1;strokeColor=none;fillColor=none;align=center;verticalAlign=middle;spacingLeft=4;spacingRight=4;whiteSpace=wrap;overflow=hidden;rotatable=0;fontColor=#000000;" vertex="1" parent="EZjnUPANlJix_Xs9OcvV-28">
          <mxGeometry y="30" width="250" height="40" as="geometry" />
        </mxCell>
        <mxCell id="EZjnUPANlJix_Xs9OcvV-40" style="edgeStyle=orthogonalEdgeStyle;rounded=0;orthogonalLoop=1;jettySize=auto;html=1;" edge="1" parent="1" source="EZjnUPANlJix_Xs9OcvV-32" target="EZjnUPANlJix_Xs9OcvV-38">
          <mxGeometry relative="1" as="geometry" />
        </mxCell>
        <mxCell id="EZjnUPANlJix_Xs9OcvV-32" value="Підтвердження початку роботи" style="swimlane;fontStyle=1;align=center;verticalAlign=middle;childLayout=stackLayout;horizontal=1;startSize=30;horizontalStack=0;resizeParent=0;resizeLast=1;container=0;fontColor=#000000;collapsible=0;rounded=1;arcSize=30;strokeColor=#ff0000;fillColor=#ffffc0;swimlaneFillColor=#ffffc0;dropTarget=0;" vertex="1" parent="1">
          <mxGeometry x="261.5" y="300" width="207" height="60" as="geometry" />
        </mxCell>
        <mxCell id="EZjnUPANlJix_Xs9OcvV-33" value="do/^Завдання.показати_деталі" style="text;html=1;strokeColor=none;fillColor=none;align=center;verticalAlign=middle;spacingLeft=4;spacingRight=4;whiteSpace=wrap;overflow=hidden;rotatable=0;fontColor=#000000;" vertex="1" parent="EZjnUPANlJix_Xs9OcvV-32">
          <mxGeometry y="30" width="207" height="30" as="geometry" />
        </mxCell>
        <mxCell id="EZjnUPANlJix_Xs9OcvV-35" style="edgeStyle=orthogonalEdgeStyle;rounded=0;orthogonalLoop=1;jettySize=auto;html=1;" edge="1" parent="1" source="ysQvWt2n_lniXi2UkVhW-11" target="EZjnUPANlJix_Xs9OcvV-32">
          <mxGeometry relative="1" as="geometry">
            <Array as="points">
              <mxPoint x="365" y="260" />
            </Array>
          </mxGeometry>
        </mxCell>
        <mxCell id="EZjnUPANlJix_Xs9OcvV-37" value="[обрано нове завдання]" style="edgeLabel;html=1;align=center;verticalAlign=middle;resizable=0;points=[];" vertex="1" connectable="0" parent="EZjnUPANlJix_Xs9OcvV-35">
          <mxGeometry x="-0.194" y="3" relative="1" as="geometry">
            <mxPoint as="offset" />
          </mxGeometry>
        </mxCell>
        <mxCell id="EZjnUPANlJix_Xs9OcvV-48" style="edgeStyle=orthogonalEdgeStyle;rounded=0;orthogonalLoop=1;jettySize=auto;html=1;" edge="1" parent="1" source="EZjnUPANlJix_Xs9OcvV-38" target="EZjnUPANlJix_Xs9OcvV-46">
          <mxGeometry relative="1" as="geometry">
            <Array as="points">
              <mxPoint x="580" y="300" />
              <mxPoint x="740" y="300" />
            </Array>
          </mxGeometry>
        </mxCell>
        <mxCell id="EZjnUPANlJix_Xs9OcvV-49" value="[посилання недійсне]" style="edgeLabel;html=1;align=center;verticalAlign=middle;resizable=0;points=[];" vertex="1" connectable="0" parent="EZjnUPANlJix_Xs9OcvV-48">
          <mxGeometry x="-0.247" relative="1" as="geometry">
            <mxPoint as="offset" />
          </mxGeometry>
        </mxCell>
        <mxCell id="EZjnUPANlJix_Xs9OcvV-38" value="Вставка посилання на репозиторій" style="rounded=1;whiteSpace=wrap;html=1;arcSize=40;fontColor=#000000;fillColor=#ffffc0;strokeColor=#ff0000;" vertex="1" parent="1">
          <mxGeometry x="535" y="310" width="120" height="40" as="geometry" />
        </mxCell>
        <mxCell id="EZjnUPANlJix_Xs9OcvV-39" value="" style="edgeStyle=orthogonalEdgeStyle;html=1;verticalAlign=bottom;endArrow=open;endSize=8;strokeColor=#ff0000;rounded=0;" edge="1" source="EZjnUPANlJix_Xs9OcvV-38" parent="1" target="EZjnUPANlJix_Xs9OcvV-43">
          <mxGeometry relative="1" as="geometry">
            <mxPoint x="900" y="330" as="targetPoint" />
          </mxGeometry>
        </mxCell>
        <mxCell id="EZjnUPANlJix_Xs9OcvV-42" value="[відповідь і посилання є]" style="edgeLabel;html=1;align=center;verticalAlign=middle;resizable=0;points=[];" vertex="1" connectable="0" parent="EZjnUPANlJix_Xs9OcvV-39">
          <mxGeometry x="-0.2798" y="-2" relative="1" as="geometry">
            <mxPoint as="offset" />
          </mxGeometry>
        </mxCell>
        <mxCell id="EZjnUPANlJix_Xs9OcvV-43" value="Повідомлення про успішний початок" style="rounded=1;whiteSpace=wrap;html=1;arcSize=40;fontColor=#000000;fillColor=#ffffc0;strokeColor=#ff0000;" vertex="1" parent="1">
          <mxGeometry x="840" y="300" width="120" height="40" as="geometry" />
        </mxCell>
        <mxCell id="EZjnUPANlJix_Xs9OcvV-44" value="" style="edgeStyle=orthogonalEdgeStyle;html=1;verticalAlign=bottom;endArrow=open;endSize=8;strokeColor=#ff0000;rounded=0;" edge="1" source="EZjnUPANlJix_Xs9OcvV-43" parent="1" target="ysQvWt2n_lniXi2UkVhW-10">
          <mxGeometry relative="1" as="geometry">
            <mxPoint x="900" y="400" as="targetPoint" />
            <Array as="points">
              <mxPoint x="900" y="240" />
              <mxPoint x="490" y="240" />
            </Array>
          </mxGeometry>
        </mxCell>
        <mxCell id="EZjnUPANlJix_Xs9OcvV-45" value="do/^Завдання.почати_виконання" style="edgeLabel;html=1;align=center;verticalAlign=middle;resizable=0;points=[];" vertex="1" connectable="0" parent="EZjnUPANlJix_Xs9OcvV-44">
          <mxGeometry x="-0.267" relative="1" as="geometry">
            <mxPoint as="offset" />
          </mxGeometry>
        </mxCell>
        <mxCell id="EZjnUPANlJix_Xs9OcvV-50" style="edgeStyle=orthogonalEdgeStyle;rounded=0;orthogonalLoop=1;jettySize=auto;html=1;" edge="1" parent="1" source="EZjnUPANlJix_Xs9OcvV-46" target="ysQvWt2n_lniXi2UkVhW-10">
          <mxGeometry relative="1" as="geometry">
            <Array as="points">
              <mxPoint x="450" y="270" />
            </Array>
          </mxGeometry>
        </mxCell>
        <mxCell id="EZjnUPANlJix_Xs9OcvV-51" value="[обрано вийти]" style="edgeLabel;html=1;align=center;verticalAlign=middle;resizable=0;points=[];" vertex="1" connectable="0" parent="EZjnUPANlJix_Xs9OcvV-50">
          <mxGeometry x="0.4657" y="-1" relative="1" as="geometry">
            <mxPoint as="offset" />
          </mxGeometry>
        </mxCell>
        <mxCell id="EZjnUPANlJix_Xs9OcvV-46" value="Помилка" style="rounded=1;whiteSpace=wrap;html=1;arcSize=40;fontColor=#000000;fillColor=#ffffc0;strokeColor=#ff0000;" vertex="1" parent="1">
          <mxGeometry x="680" y="250" width="120" height="40" as="geometry" />
        </mxCell>
        <mxCell id="EZjnUPANlJix_Xs9OcvV-47" value="" style="edgeStyle=orthogonalEdgeStyle;html=1;verticalAlign=bottom;endArrow=open;endSize=8;strokeColor=#ff0000;rounded=0;" edge="1" source="EZjnUPANlJix_Xs9OcvV-46" parent="1" target="EZjnUPANlJix_Xs9OcvV-38">
          <mxGeometry relative="1" as="geometry">
            <mxPoint x="595" y="350" as="targetPoint" />
            <Array as="points">
              <mxPoint x="560" y="280" />
            </Array>
          </mxGeometry>
        </mxCell>
        <mxCell id="EZjnUPANlJix_Xs9OcvV-56" value="Запитати виконання" style="swimlane;fontStyle=1;align=center;verticalAlign=middle;childLayout=stackLayout;horizontal=1;startSize=30;horizontalStack=0;resizeParent=0;resizeLast=1;container=0;fontColor=#000000;collapsible=0;rounded=1;arcSize=30;strokeColor=#ff0000;fillColor=#ffffc0;swimlaneFillColor=#ffffc0;dropTarget=0;" vertex="1" parent="1">
          <mxGeometry x="350" y="20" width="300" height="60" as="geometry" />
        </mxCell>
        <mxCell id="EZjnUPANlJix_Xs9OcvV-57" value="do/^Профіль.Менеджер.додати_запит_виконання" style="text;html=1;strokeColor=none;fillColor=none;align=center;verticalAlign=middle;spacingLeft=4;spacingRight=4;whiteSpace=wrap;overflow=hidden;rotatable=0;fontColor=#000000;" vertex="1" parent="EZjnUPANlJix_Xs9OcvV-56">
          <mxGeometry y="30" width="300" height="30" as="geometry" />
        </mxCell>
        <mxCell id="EZjnUPANlJix_Xs9OcvV-58" value="" style="edgeStyle=orthogonalEdgeStyle;html=1;verticalAlign=bottom;endArrow=open;endSize=8;strokeColor=#ff0000;rounded=0;" edge="1" source="EZjnUPANlJix_Xs9OcvV-56" parent="1" target="ysQvWt2n_lniXi2UkVhW-10">
          <mxGeometry relative="1" as="geometry">
            <mxPoint x="510" y="140" as="targetPoint" />
            <Array as="points">
              <mxPoint x="340" y="50" />
            </Array>
          </mxGeometry>
        </mxCell>
        <mxCell id="EZjnUPANlJix_Xs9OcvV-59" style="edgeStyle=orthogonalEdgeStyle;rounded=0;orthogonalLoop=1;jettySize=auto;html=1;" edge="1" parent="1" source="EZjnUPANlJix_Xs9OcvV-25" target="EZjnUPANlJix_Xs9OcvV-56">
          <mxGeometry relative="1" as="geometry" />
        </mxCell>
        <mxCell id="EZjnUPANlJix_Xs9OcvV-60" value="Перегляд завдання" style="swimlane;fontStyle=1;align=center;verticalAlign=middle;childLayout=stackLayout;horizontal=1;startSize=30;horizontalStack=0;resizeParent=0;resizeLast=1;container=0;fontColor=#000000;collapsible=0;rounded=1;arcSize=35;strokeColor=#ff0000;fillColor=#ffffc0;swimlaneFillColor=#ffffc0;dropTarget=0;" vertex="1" parent="1">
          <mxGeometry x="1310" y="510" width="210" height="110" as="geometry" />
        </mxCell>
        <mxCell id="EZjnUPANlJix_Xs9OcvV-61" value="do/^Завдання.показати_проєкт&lt;div&gt;do^/Завдання.показати_деталі&lt;/div&gt;&lt;div&gt;do/^Завдання.показати_історію&lt;/div&gt;&lt;div&gt;&lt;span style=&quot;color: rgba(0, 0, 0, 0); font-family: monospace; font-size: 0px; text-align: start; text-wrap: nowrap;&quot;&gt;%3CmxGraphModel%3E%3Croot%3E%3CmxCell%20id%3D%220%22%2F%3E%3CmxCell%20id%3D%221%22%20parent%3D%220%22%2F%3E%3CmxCell%20id%3D%222%22%20value%3D%22%D0%9F%D0%B5%D1%80%D0%B5%D0%B3%D0%BB%D1%8F%D0%B4%20%D0%B7%D0%B0%D0%B2%D0%B4%D0%B0%D0%BD%D0%BD%D1%8F%22%20style%3D%22swimlane%3BfontStyle%3D1%3Balign%3Dcenter%3BverticalAlign%3Dmiddle%3BchildLayout%3DstackLayout%3Bhorizontal%3D1%3BstartSize%3D30%3BhorizontalStack%3D0%3BresizeParent%3D0%3BresizeLast%3D1%3Bcontainer%3D0%3BfontColor%3D%23000000%3Bcollapsible%3D0%3Brounded%3D1%3BarcSize%3D35%3BstrokeColor%3D%23ff0000%3BfillColor%3D%23ffffc0%3BswimlaneFillColor%3D%23ffffc0%3BdropTarget%3D0%3B%22%20vertex%3D%221%22%20parent%3D%221%22%3E%3CmxGeometry%20x%3D%221310%22%20y%3D%22520%22%20width%3D%22210%22%20height%3D%22100%22%20as%3D%22geometry%22%2F%3E%3C%2FmxCell%3E%3CmxCell%20id%3D%223%22%20value%3D%22do%2F%5E%D0%97%D0%B0%D0%B2%D0%B4%D0%B0%D0%BD%D0%BD%D1%8F.%D0%BF%D0%BE%D0%BA%D0%B0%D0%B7%D0%B0%D1%82%D0%B8_%D0%BF%D1%80%D0%BE%D1%94%D0%BA%D1%82%26lt%3Bdiv%26gt%3Bdo%5E%2F%D0%97%D0%B0%D0%B2%D0%B4%D0%B0%D0%BD%D0%BD%D1%8F.%D0%BF%D0%BE%D0%BA%D0%B0%D0%B7%D0%B0%D1%82%D0%B8_%D0%B4%D0%B5%D1%82%D0%B0%D0%BB%D1%96%26lt%3B%2Fdiv%26gt%3B%26lt%3Bdiv%26gt%3Bdo%2F%5E%D0%97%D0%B0%D0%B2%D0%B4%D0%B0%D0%BD%D0%BD%D1%8F.%D0%BF%D0%BE%D0%BA%D0%B0%D0%B7%D0%B0%D1%82%D0%B8_%D1%96%D1%81%D1%82%D0%BE%D1%80%D1%96%D1%8E%26lt%3B%2Fdiv%26gt%3B%26lt%3Bdiv%26gt%3Bdo%2F%5E%D0%97%D0%B0%D0%B2%D0%B4%D0%B0%D0%BD%D0%BD%D1%8F.%D0%BF%D0%BE%D0%BA%D0%B0%D0%B7%D0%B0%D1%82%D0%B8_%D0%B2%D0%B8%D0%BA%D0%BE%D0%BD%D0%B0%D0%B2%D1%86%D1%96%D0%B2%26lt%3Bbr%26gt%3B%26lt%3B%2Fdiv%26gt%3B%22%20style%3D%22text%3Bhtml%3D1%3BstrokeColor%3Dnone%3BfillColor%3Dnone%3Balign%3Dcenter%3BverticalAlign%3Dmiddle%3BspacingLeft%3D4%3BspacingRight%3D4%3BwhiteSpace%3Dwrap%3Boverflow%3Dhidden%3Brotatable%3D0%3BfontColor%3D%23000000%3B%22%20vertex%3D%221%22%20parent%3D%222%22%3E%3CmxGeometry%20y%3D%2230%22%20width%3D%22210%22%20height%3D%2270%22%20as%3D%22geometry%22%2F%3E%3C%2FmxCell%3E%3C%2Froot%3E%3C%2FmxGraphModel%3&lt;/span&gt;&lt;span style=&quot;background-color: initial;&quot;&gt;do/^Завдання.показати_навички&lt;/span&gt;&lt;/div&gt;&lt;div&gt;&lt;span style=&quot;background-color: initial;&quot;&gt;do/^Завдання.показати_виконавців&lt;/span&gt;&lt;/div&gt;" style="text;html=1;strokeColor=none;fillColor=none;align=center;verticalAlign=middle;spacingLeft=4;spacingRight=4;whiteSpace=wrap;overflow=hidden;rotatable=0;fontColor=#000000;" vertex="1" parent="EZjnUPANlJix_Xs9OcvV-60">
          <mxGeometry y="30" width="210" height="80" as="geometry" />
        </mxCell>
        <mxCell id="EZjnUPANlJix_Xs9OcvV-62" value="Перегляд завдань проєкту" style="swimlane;fontStyle=1;align=center;verticalAlign=middle;childLayout=stackLayout;horizontal=1;startSize=30;horizontalStack=0;resizeParent=0;resizeLast=1;container=0;fontColor=#000000;collapsible=0;rounded=1;arcSize=30;strokeColor=#ff0000;fillColor=#ffffc0;swimlaneFillColor=#ffffc0;dropTarget=0;" vertex="1" parent="1">
          <mxGeometry x="1290" y="380" width="270" height="70" as="geometry" />
        </mxCell>
        <mxCell id="EZjnUPANlJix_Xs9OcvV-63" value="do/^Профіль.представити_завдання_проєкту" style="text;html=1;strokeColor=none;fillColor=none;align=center;verticalAlign=middle;spacingLeft=4;spacingRight=4;whiteSpace=wrap;overflow=hidden;rotatable=0;fontColor=#000000;" vertex="1" parent="EZjnUPANlJix_Xs9OcvV-62">
          <mxGeometry y="30" width="270" height="40" as="geometry" />
        </mxCell>
        <mxCell id="EZjnUPANlJix_Xs9OcvV-64" style="edgeStyle=orthogonalEdgeStyle;rounded=0;orthogonalLoop=1;jettySize=auto;html=1;" edge="1" parent="1" source="EZjnUPANlJix_Xs9OcvV-63" target="EZjnUPANlJix_Xs9OcvV-60">
          <mxGeometry relative="1" as="geometry" />
        </mxCell>
        <mxCell id="EZjnUPANlJix_Xs9OcvV-65" style="edgeStyle=orthogonalEdgeStyle;rounded=0;orthogonalLoop=1;jettySize=auto;html=1;" edge="1" parent="1" source="EZjnUPANlJix_Xs9OcvV-60" target="EZjnUPANlJix_Xs9OcvV-62">
          <mxGeometry relative="1" as="geometry">
            <Array as="points">
              <mxPoint x="1380" y="500" />
              <mxPoint x="1370" y="500" />
            </Array>
          </mxGeometry>
        </mxCell>
        <mxCell id="EZjnUPANlJix_Xs9OcvV-66" value="Редагувати завдання" style="swimlane;fontStyle=1;align=center;verticalAlign=middle;childLayout=stackLayout;horizontal=1;startSize=30;horizontalStack=0;resizeParent=0;resizeLast=1;container=0;fontColor=#000000;collapsible=0;rounded=1;arcSize=35;strokeColor=#ff0000;fillColor=#ffffc0;swimlaneFillColor=#ffffc0;dropTarget=0;" vertex="1" parent="1">
          <mxGeometry x="1040" y="520" width="229.96" height="100" as="geometry" />
        </mxCell>
        <mxCell id="EZjnUPANlJix_Xs9OcvV-67" value="&lt;div&gt;do^/Завдання.редагувати_деталі&lt;/div&gt;&lt;div&gt;do/^Завдання.редагувати_навички&lt;/div&gt;&lt;div&gt;do/^Завдання.редагувати_виконавців&lt;br&gt;&lt;/div&gt;" style="text;html=1;strokeColor=none;fillColor=none;align=center;verticalAlign=middle;spacingLeft=4;spacingRight=4;whiteSpace=wrap;overflow=hidden;rotatable=0;fontColor=#000000;" vertex="1" parent="EZjnUPANlJix_Xs9OcvV-66">
          <mxGeometry y="30" width="229.96" height="70" as="geometry" />
        </mxCell>
        <mxCell id="EZjnUPANlJix_Xs9OcvV-68" style="edgeStyle=orthogonalEdgeStyle;rounded=0;orthogonalLoop=1;jettySize=auto;html=1;" edge="1" parent="1" source="EZjnUPANlJix_Xs9OcvV-61" target="EZjnUPANlJix_Xs9OcvV-66">
          <mxGeometry relative="1" as="geometry" />
        </mxCell>
        <mxCell id="EZjnUPANlJix_Xs9OcvV-69" style="edgeStyle=orthogonalEdgeStyle;rounded=0;orthogonalLoop=1;jettySize=auto;html=1;" edge="1" parent="1" source="EZjnUPANlJix_Xs9OcvV-66" target="EZjnUPANlJix_Xs9OcvV-62">
          <mxGeometry relative="1" as="geometry">
            <Array as="points">
              <mxPoint x="1165" y="510" />
              <mxPoint x="1310" y="510" />
            </Array>
          </mxGeometry>
        </mxCell>
        <mxCell id="EZjnUPANlJix_Xs9OcvV-70" value="Перегляд запитів" style="swimlane;fontStyle=1;align=center;verticalAlign=middle;childLayout=stackLayout;horizontal=1;startSize=30;horizontalStack=0;resizeParent=0;resizeLast=1;container=0;fontColor=#000000;collapsible=0;rounded=1;arcSize=30;strokeColor=#ff0000;fillColor=#ffffc0;swimlaneFillColor=#ffffc0;dropTarget=0;" vertex="1" parent="1">
          <mxGeometry x="830" y="930" width="210" height="100" as="geometry" />
        </mxCell>
        <mxCell id="EZjnUPANlJix_Xs9OcvV-71" value="Subtitle" style="text;html=1;strokeColor=none;fillColor=none;align=center;verticalAlign=middle;spacingLeft=4;spacingRight=4;whiteSpace=wrap;overflow=hidden;rotatable=0;fontColor=#000000;" vertex="1" parent="EZjnUPANlJix_Xs9OcvV-70">
          <mxGeometry y="30" width="210" height="70" as="geometry" />
        </mxCell>
        <mxCell id="EZjnUPANlJix_Xs9OcvV-72" value="" style="edgeStyle=orthogonalEdgeStyle;html=1;verticalAlign=bottom;endArrow=open;endSize=8;strokeColor=#ff0000;rounded=0;" edge="1" source="EZjnUPANlJix_Xs9OcvV-70" parent="1">
          <mxGeometry relative="1" as="geometry">
            <mxPoint x="910" y="1050" as="targetPoint" />
          </mxGeometry>
        </mxCell>
        <mxCell id="EZjnUPANlJix_Xs9OcvV-75" value="Представлення списку звітів" style="swimlane;fontStyle=1;align=center;verticalAlign=middle;childLayout=stackLayout;horizontal=1;startSize=30;horizontalStack=0;resizeParent=0;resizeLast=1;container=0;fontColor=#000000;collapsible=0;rounded=1;arcSize=30;strokeColor=#ff0000;fillColor=#ffffc0;swimlaneFillColor=#ffffc0;dropTarget=0;" vertex="1" parent="1">
          <mxGeometry x="430" y="680" width="182" height="60" as="geometry" />
        </mxCell>
        <mxCell id="EZjnUPANlJix_Xs9OcvV-76" value="Subtitle" style="text;html=1;strokeColor=none;fillColor=none;align=center;verticalAlign=middle;spacingLeft=4;spacingRight=4;whiteSpace=wrap;overflow=hidden;rotatable=0;fontColor=#000000;" vertex="1" parent="EZjnUPANlJix_Xs9OcvV-75">
          <mxGeometry y="30" width="182" height="30" as="geometry" />
        </mxCell>
        <mxCell id="EZjnUPANlJix_Xs9OcvV-77" value="" style="edgeStyle=orthogonalEdgeStyle;html=1;verticalAlign=bottom;endArrow=open;endSize=8;strokeColor=#ff0000;rounded=0;" edge="1" source="EZjnUPANlJix_Xs9OcvV-75" parent="1" target="EZjnUPANlJix_Xs9OcvV-78">
          <mxGeometry relative="1" as="geometry">
            <mxPoint x="548" y="820" as="targetPoint" />
          </mxGeometry>
        </mxCell>
        <mxCell id="EZjnUPANlJix_Xs9OcvV-78" value="Створення звіту" style="swimlane;fontStyle=1;align=center;verticalAlign=middle;childLayout=stackLayout;horizontal=1;startSize=30;horizontalStack=0;resizeParent=0;resizeLast=1;container=0;fontColor=#000000;collapsible=0;rounded=1;arcSize=30;strokeColor=#ff0000;fillColor=#ffffc0;swimlaneFillColor=#ffffc0;dropTarget=0;" vertex="1" parent="1">
          <mxGeometry x="634" y="690" width="182" height="60" as="geometry" />
        </mxCell>
        <mxCell id="EZjnUPANlJix_Xs9OcvV-79" value="Subtitle" style="text;html=1;strokeColor=none;fillColor=none;align=center;verticalAlign=middle;spacingLeft=4;spacingRight=4;whiteSpace=wrap;overflow=hidden;rotatable=0;fontColor=#000000;" vertex="1" parent="EZjnUPANlJix_Xs9OcvV-78">
          <mxGeometry y="30" width="182" height="30" as="geometry" />
        </mxCell>
        <mxCell id="EZjnUPANlJix_Xs9OcvV-80" value="Перегляд звіту" style="swimlane;fontStyle=1;align=center;verticalAlign=middle;childLayout=stackLayout;horizontal=1;startSize=30;horizontalStack=0;resizeParent=0;resizeLast=1;container=0;fontColor=#000000;collapsible=0;rounded=1;arcSize=30;strokeColor=#ff0000;fillColor=#ffffc0;swimlaneFillColor=#ffffc0;dropTarget=0;" vertex="1" parent="1">
          <mxGeometry x="580" y="780" width="182" height="60" as="geometry" />
        </mxCell>
        <mxCell id="EZjnUPANlJix_Xs9OcvV-81" value="Subtitle" style="text;html=1;strokeColor=none;fillColor=none;align=center;verticalAlign=middle;spacingLeft=4;spacingRight=4;whiteSpace=wrap;overflow=hidden;rotatable=0;fontColor=#000000;" vertex="1" parent="EZjnUPANlJix_Xs9OcvV-80">
          <mxGeometry y="30" width="182" height="30" as="geometry" />
        </mxCell>
        <mxCell id="EZjnUPANlJix_Xs9OcvV-82" style="edgeStyle=orthogonalEdgeStyle;rounded=0;orthogonalLoop=1;jettySize=auto;html=1;" edge="1" parent="1" source="EZjnUPANlJix_Xs9OcvV-76" target="EZjnUPANlJix_Xs9OcvV-80">
          <mxGeometry relative="1" as="geometry" />
        </mxCell>
        <mxCell id="EZjnUPANlJix_Xs9OcvV-83" style="edgeStyle=orthogonalEdgeStyle;rounded=0;orthogonalLoop=1;jettySize=auto;html=1;" edge="1" parent="1" source="EZjnUPANlJix_Xs9OcvV-79" target="EZjnUPANlJix_Xs9OcvV-80">
          <mxGeometry relative="1" as="geometry" />
        </mxCell>
      </root>
    </mxGraphModel>
  </diagram>
</mxfile>
